<svg width="24" height="24" viewBox="0 0 24 24" fill="none" xmlns="http://www.w3.org/2000/svg">
<path d="M15.9951 9.36992C15.7488 9.11023 15.3382 9.09879 15.0781 9.3457L10.9372 13.2729L8.96203 11.245C8.71188 10.9883 8.30172 10.9827 8.04485 11.2329C7.78819 11.4828 7.78278 11.8934 8.03272 12.15L10.4543 14.6363C10.5813 14.7667 10.7499 14.8324 10.919 14.8324C11.0794 14.8324 11.2399 14.7732 11.3655 14.6545L15.9709 10.2869C16.2308 10.0404 16.2418 9.62983 15.9951 9.36992Z" fill="#878787"/>
<path d="M12 4C7.58875 4 4 7.58875 4 12C4 16.4113 7.58875 20 12 20C16.4113 20 20 16.4113 20 12C20 7.58875 16.4113 4 12 4ZM12 18.7027C8.30422 18.7027 5.29728 15.696 5.29728 12C5.29728 8.30422 8.30419 5.29728 12 5.29728C15.696 5.29728 18.7027 8.30419 18.7027 12C18.7027 15.696 15.696 18.7027 12 18.7027Z" fill="#878787"/>
</svg>
