<svg width="19" height="12" viewBox="0 0 19 12" fill="none" xmlns="http://www.w3.org/2000/svg">
<path fill-rule="evenodd" clip-rule="evenodd" d="M9.8344 0.772461C7.88533 0.772461 6.07941 1.59441 4.61775 2.59541C2.52121 4.0312 1.14522 5.81985 1.08931 5.89308C1.08753 5.89541 1.08664 5.89658 1.08488 5.89893C0.920437 6.11875 0.920437 6.42617 1.08488 6.64599C1.08664 6.64834 1.08753 6.64951 1.08931 6.65184C1.14523 6.72508 2.52121 8.51372 4.61775 9.94952C6.07941 10.9505 7.88533 11.7725 9.8344 11.7725C11.7835 11.7725 13.5894 10.9505 15.0511 9.94952C17.1476 8.51372 18.5236 6.72507 18.5795 6.65184C18.5813 6.64951 18.5822 6.64834 18.5839 6.64599C18.7484 6.42617 18.7484 6.11875 18.5839 5.89893C18.5822 5.89658 18.5813 5.89541 18.5795 5.89308C18.5236 5.81985 17.1476 4.0312 15.0511 2.59541C13.5894 1.59441 11.7835 0.772461 9.8344 0.772461ZM9.8344 3.21691C8.2018 3.21691 6.87678 4.58579 6.87678 6.27246C6.87678 7.95913 8.2018 9.32802 9.8344 9.32802C11.467 9.32802 12.792 7.95913 12.792 6.27246C12.792 4.58579 11.467 3.21691 9.8344 3.21691ZM9.8344 4.43913C10.814 4.43913 11.609 5.26046 11.609 6.27246C11.609 7.28446 10.814 8.10579 9.8344 8.10579C8.85484 8.10579 8.05983 7.28446 8.05983 6.27246C8.05983 5.26046 8.85484 4.43913 9.8344 4.43913Z" fill="#ABABAB"/>
</svg>
