<svg width="24" height="24" viewBox="0 0 24 24" fill="none" xmlns="http://www.w3.org/2000/svg">
<path d="M12 4C12.3787 4 12.6857 4.30701 12.6857 4.68572C12.6857 5.06442 12.3787 5.37143 12 5.37143C8.33916 5.37143 5.37143 8.33916 5.37143 12C5.37143 15.6609 8.33916 18.6286 12 18.6286C12.3787 18.6286 12.6857 18.9356 12.6857 19.3143C12.6857 19.693 12.3787 20 12 20C7.58173 20 4 16.4183 4 12C4 7.58173 7.58173 4 12 4Z" fill="#878787"/>
<path d="M16.0866 9.742C15.8188 9.47421 15.8188 9.04004 16.0866 8.77225C16.3544 8.50446 16.7885 8.50446 17.0563 8.77225L19.7992 11.5151C20.067 11.7829 20.067 12.217 19.7992 12.4848L17.0563 15.2277C16.7885 15.4955 16.3544 15.4955 16.0866 15.2277C15.8188 14.9599 15.8188 14.5258 16.0866 14.258L17.6588 12.6857H10.1714C9.79273 12.6857 9.48572 12.3787 9.48572 12C9.48572 11.6213 9.79273 11.3143 10.1714 11.3143H17.6588L16.0866 9.742Z" fill="#878787"/>
</svg>
