<svg width="15" height="11" viewBox="0 0 15 11" fill="none" xmlns="http://www.w3.org/2000/svg">
<path fill-rule="evenodd" clip-rule="evenodd" d="M13.6207 10.627L9.75612 5.89046L8.22387 6.98647C7.89283 7.22347 7.45338 7.22347 7.12234 6.98647L5.59153 5.89197L1.75603 10.6415C1.94091 10.727 2.14273 10.7725 2.34938 10.7725H12.9968C13.2146 10.7725 13.4276 10.722 13.6207 10.627ZM4.79249 5.32047L0.897461 2.53445V9.27246C0.897461 9.50996 0.952149 9.74197 1.05378 9.94997L4.79249 5.32047ZM14.4487 2.53445L10.5557 5.31895L14.3079 9.91696C14.3999 9.71746 14.4487 9.49746 14.4487 9.27246V2.53445ZM1.11864 1.47646L7.6731 6.16446L14.2276 1.47646C14.17 1.38146 14.1017 1.29246 14.0233 1.21196C13.7513 0.93046 13.3821 0.772461 12.9968 0.772461H2.34938C1.96414 0.772461 1.59487 0.93046 1.32287 1.21196C1.24447 1.29246 1.17623 1.38146 1.11864 1.47646Z" fill="#ABABAB"/>
</svg>
