<svg width="7" height="12" viewBox="0 0 7 12" fill="none" xmlns="http://www.w3.org/2000/svg">
<path d="M2.76738 9.65366C2.68791 9.79733 2.70711 9.89371 2.84621 9.89371C3.12554 9.89371 4.22023 9.27007 4.71888 8.88636C4.95664 8.88636 5.15574 9.06296 5.09675 9.27007C4.31953 10.1021 2.54844 11.1711 0.916187 11.1711C0.397319 11.1711 0 10.7243 0 10.5331C0 10.3564 0.0792094 10.1645 0.236993 9.84603L2.30852 5.86457C2.36841 5.7373 2.36841 5.64182 2.26898 5.64182C1.93104 5.64182 0.816126 6.31313 0.497508 6.55152C0.257717 6.52024 0.098408 6.31313 0.179016 6.16818C1.25388 5.11379 3.12554 4.32984 4.18018 4.32984C4.61882 4.32984 5.09662 4.68126 5.09662 5.03268C5.09662 5.1925 4.95651 5.49611 4.83598 5.7373L2.76738 9.65366ZM5.03636 0.829102C5.71301 0.829102 6.15139 1.16565 6.15139 1.77199C6.15139 2.47661 5.55434 3.06731 4.63828 3.06731C3.90238 3.06731 3.4645 2.66771 3.4645 2.15672C3.46437 1.45273 4.11992 0.829102 5.03636 0.829102Z" fill="#F703D0"/>
</svg>
